<svg id="图层_1" data-name="图层 1" xmlns="http://www.w3.org/2000/svg" viewBox="0 0 283.41 391.93"><defs><style>.cls-1{fill:#c30d23;}.cls-2{fill:#0d579e;}.cls-3{fill:#808284;}</style></defs><title>logo</title><path class="cls-1" d="M379.49,252.85a11.93,11.93,0,0,1-4-.7l-208.71-73.3a33.07,33.07,0,0,1,.18-62.46L342.34,55.93A34.78,34.78,0,0,1,388.45,88.8v59.85a38.87,38.87,0,0,1-25.1,36.22L321.94,200.4a12.21,12.21,0,1,1-8.57-22.86L354.77,162A14.32,14.32,0,0,0,364,148.65V88.8A10.36,10.36,0,0,0,350.29,79L174.88,139.47a8.66,8.66,0,0,0,0,16.35l208.71,73.3a12.21,12.21,0,0,1-4.05,23.73Z" transform="translate(-108.3 -54.03)"/><path class="cls-2" d="M120.51,247.15a11.93,11.93,0,0,1,4,.7l208.71,73.3a33.07,33.07,0,0,1-.18,62.46L157.66,444.07a34.78,34.78,0,0,1-46.11-32.87V351.35a38.87,38.87,0,0,1,25.1-36.22l41.41-15.53a12.21,12.21,0,1,1,8.57,22.86L145.23,338A14.32,14.32,0,0,0,136,351.35V411.2a10.36,10.36,0,0,0,13.74,9.8l175.41-60.47a8.66,8.66,0,0,0,.05-16.35l-208.71-73.3a12.21,12.21,0,0,1,4.05-23.73Z" transform="translate(-108.3 -54.03)"/><path class="cls-3" d="M151.4,230.05l-24.67-8.47,2.11-6.17,24.68,8.47a2.17,2.17,0,0,0,1.41-4.11l-16.45-5.64q-8.22-2.83-5.4-11t11-5.4l24.67,8.46-2.12,6.17L142,203.84A2.18,2.18,0,0,0,140.6,208l16.45,5.64q8.22,2.82,5.4,11.05T151.4,230.05Z" transform="translate(-108.3 -54.03)"/><path class="cls-3" d="M169.91,236.4l-6.17-2.12,2.12-6.16,6.16,2.11Z" transform="translate(-108.3 -54.03)"/><path class="cls-3" d="M186.54,221.42l-6.35,18.51L174,237.81l6.35-18.5q2.82-8.22,11-5.4l6.17,2.11a10.06,10.06,0,0,1,4.71,3,10.12,10.12,0,0,1,5.57.53l6.16,2.12q8.24,2.82,5.41,11l-6.35,18.51-6.17-2.12,6.35-18.5a1.92,1.92,0,0,0-1.35-2.76l-6.17-2.12a1.92,1.92,0,0,0-2.76,1.35l-6.35,18.5-6.17-2.11L196.82,225a1.92,1.92,0,0,0-1.35-2.76l-6.17-2.12A1.92,1.92,0,0,0,186.54,221.42Z" transform="translate(-108.3 -54.03)"/><path class="cls-3" d="M223.37,254.75l-6.17-2.12,2.11-6.17,6.17,2.12Z" transform="translate(-108.3 -54.03)"/><path class="cls-3" d="M240,239.77l-6.35,18.51-6.17-2.12,6.35-18.51q2.82-8.22,11-5.4l16.44,5.65q8.24,2.82,5.41,11l-6.36,18.51-6.16-2.12,2.82-8.22-16.45-5.65,2.12-6.16,16.45,5.64,1.41-4.11a1.92,1.92,0,0,0-1.35-2.76l-16.45-5.65A1.92,1.92,0,0,0,240,239.77Z" transform="translate(-108.3 -54.03)"/><path class="cls-3" d="M270.66,271l-6.17-2.12,2.11-6.17,6.17,2.12Z" transform="translate(-108.3 -54.03)"/><path class="cls-3" d="M288,254l-7.05,20.56-6.17-2.12,9.17-26.73,24.67,8.47q8.24,2.82,5.41,11t-11,5.41l-1.56-.54,6.75,13.81-8.72-3-10.8-22.1,16.45,5.65a2.17,2.17,0,1,0,1.41-4.11Z" transform="translate(-108.3 -54.03)"/><path class="cls-3" d="M318,287.21l-6.17-2.12,2.11-6.17,6.17,2.12Z" transform="translate(-108.3 -54.03)"/><path class="cls-3" d="M364.13,273.18,362,279.35l-13.36-4.59-7.06,20.56-6.17-2.12,7.06-20.56-13.37-4.58,2.12-6.17Z" transform="translate(-108.3 -54.03)"/></svg>